<svg version="1.1" class="header-logo--svg" viewBox="0 0 720 720" height="100px" xmlns="http://www.w3.org/2000/svg" xmlns:xlink="http://www.w3.org/1999/xlink" x="0px" y="0px" xml:space="preserve">
<style>svg { fill: #fff; }</style>
<g><path class="header-logo--path" d="M444.8,197.9L417.1,222v85l-67.9,59l-60.7-166.6l-26.8,23.3v276.6l17.2,22.8l7.9-6.9v0l68.3-59.4l19,52.2
l20.3-17.6l-19-52.2l41.6-36.2v106.8l25.1-21.8V380.2l84.6-73.5L444.8,197.9z M286.8,268.2l42.1,115.5l-42.1,36.5V268.2z
M286.8,481.9v-28.4l51.3-44.5l7.9,21.6L286.8,481.9z M417.1,368.7l-50.9,44.2l-7.9-21.6l58.7-51V368.7z M442.2,236.2l22.3,29.6
l-22.3,19.4V236.2z M442.2,346.9v-28.4l37.5-32.6l12.9,17.2L442.2,346.9z"></path></g></svg>