<?xml version="1.0" standalone="no"?>
<!DOCTYPE svg PUBLIC "-//W3C//DTD SVG 20010904//EN"
 "http://www.w3.org/TR/2001/REC-SVG-20010904/DTD/svg10.dtd">
<svg version="1.0" xmlns="http://www.w3.org/2000/svg"
 width="700.000000pt" height="700.000000pt" viewBox="0 0 700.000000 700.000000"
 preserveAspectRatio="xMidYMid meet">
<metadata>
Created by potrace 1.11, written by Peter Selinger 2001-2013
</metadata>
<g transform="translate(0.000000,700.000000) scale(0.100000,-0.100000)"
fill="#000000" stroke="none">
<path d="M4285 5042 c-16 -15 -75 -66 -130 -114 l-100 -86 0 -412 0 -412 -40
-36 c-22 -21 -69 -62 -105 -92 -35 -30 -74 -64 -86 -75 -33 -30 -65 -58 -224
-195 -80 -69 -156 -135 -170 -147 -14 -13 -28 -23 -31 -23 -4 0 -14 19 -22 43
-9 23 -31 85 -50 137 -19 52 -72 196 -117 320 -84 233 -117 323 -155 425 -13
33 -73 200 -136 372 -100 278 -114 310 -129 300 -20 -14 -123 -104 -194 -168
l-51 -47 0 -1344 0 -1344 79 -104 c43 -58 82 -106 86 -108 5 -2 30 16 57 40
377 330 677 588 685 588 4 0 8 -5 8 -11 0 -6 6 -25 14 -42 8 -18 24 -61 37
-97 12 -36 44 -123 71 -195 26 -71 48 -136 48 -143 0 -15 19 -1 113 81 33 28
66 56 73 60 20 11 18 25 -15 114 -16 43 -54 146 -84 228 -31 83 -58 157 -62
166 -6 17 0 23 213 208 29 25 71 63 95 84 23 21 53 47 67 57 l25 18 -1 -514
c0 -283 1 -514 3 -514 4 0 129 106 176 150 21 19 45 39 53 43 11 7 14 94 14
529 l0 522 28 26 c15 14 109 95 208 180 98 85 193 166 209 181 17 15 102 89
190 165 88 76 166 144 172 151 10 9 -41 83 -245 353 -141 187 -264 351 -272
363 -44 65 -262 347 -268 347 -4 0 -20 -13 -37 -28z m184 -666 c-25 -23 -73
-65 -107 -94 l-62 -54 0 238 0 238 107 -144 107 -143 -45 -41z m-1554 -331 c8
-22 75 -205 148 -408 l135 -367 -152 -131 c-83 -71 -164 -142 -181 -157 -16
-15 -40 -36 -52 -46 l-23 -19 0 734 1 734 55 -150 c30 -82 61 -168 69 -190z
m1795 113 c19 -28 40 -56 45 -62 38 -42 40 -40 -55 -120 -49 -43 -96 -83 -102
-89 -7 -7 -77 -67 -155 -135 l-143 -123 0 138 0 138 78 67 c42 36 88 76 102
87 14 12 38 33 53 48 55 51 122 103 132 103 5 0 26 -23 45 -52z m-655 -611 l0
-132 -85 -74 c-47 -40 -112 -97 -145 -126 -33 -28 -83 -72 -110 -96 -90 -78
-143 -121 -151 -121 -9 0 -64 144 -70 182 -4 22 20 45 177 180 100 85 189 162
198 170 9 9 50 45 91 80 41 36 77 69 79 73 10 25 15 -18 16 -136z m-729 -628
l38 -102 -40 -36 c-22 -20 -68 -61 -103 -91 -36 -30 -69 -60 -75 -65 -6 -6
-60 -53 -121 -105 -60 -51 -117 -101 -126 -109 -18 -17 -50 -45 -86 -74 l-23
-18 0 138 0 138 63 52 c34 29 78 67 97 84 43 38 58 51 195 169 61 52 116 100
123 107 7 7 15 13 16 13 2 0 21 -46 42 -101z"/>
</g>
</svg>
